<?xml version="1.0" standalone="no"?>
<!DOCTYPE svg PUBLIC "-//W3C//DTD SVG 20010904//EN"
 "http://www.w3.org/TR/2001/REC-SVG-20010904/DTD/svg10.dtd">
<svg version="1.0" xmlns="http://www.w3.org/2000/svg"
 width="250.000000pt" height="250.000000pt" viewBox="0 0 250.000000 250.000000"
 preserveAspectRatio="xMidYMid meet">
<metadata>
Created by potrace 1.11, written by Peter Selinger 2001-2013
</metadata>
<g transform="translate(0.000000,250.000000) scale(0.100000,-0.100000)"
fill="#000000" stroke="none">
<path d="M0 1250 l0 -1250 1250 0 1250 0 0 1250 0 1250 -1250 0 -1250 0 0
-1250z m1468 854 c2 -1 -30 -61 -71 -133 l-75 -130 429 -746 c236 -411 429
-749 429 -751 0 -2 -131 -3 -292 -2 l-292 3 -170 298 c-160 278 -172 296 -185
277 -8 -12 -87 -148 -176 -303 l-163 -282 -291 -3 c-160 -1 -291 0 -291 3 0 3
188 333 418 733 230 400 424 737 430 749 12 21 -12 71 -119 250 l-19 31 46 26
c26 14 49 26 53 26 3 0 30 -43 60 -95 30 -52 58 -95 62 -95 4 0 32 45 64 100
l56 100 47 -27 c26 -14 48 -28 50 -29z"/>
</g>
</svg>
